<svg width="54" height="60" viewBox="0 0 54 60" fill="none" xmlns="http://www.w3.org/2000/svg">
<path d="M52.849 60H0.5156C0.234364 60 0 59.7656 0 59.4844V57.0235C0 56.7423 0.234364 56.5079 0.5156 56.5079H52.849C53.1302 56.5079 53.3646 56.7423 53.3646 57.0235V59.4844C53.3646 59.7656 53.1302 60 52.849 60Z" fill="url(#paint0_linear_3553_9034)"/>
<path d="M50.7281 56.4959H2.63672V53.5078C2.63672 53.2266 2.87108 52.9922 3.15232 52.9922H50.2125C50.4938 52.9922 50.7281 53.2266 50.7281 53.5078V56.4959Z" fill="url(#paint1_linear_3553_9034)"/>
<path d="M47.0254 52.9925H6.33984V23.1814L26.6827 3.79956L47.0254 23.1814V52.9925Z" fill="url(#paint2_linear_3553_9034)"/>
<path d="M42.5957 18.9629L47.0252 23.1814V52.9925H42.5957V18.9629Z" fill="url(#paint3_linear_3553_9034)"/>
<path d="M6.33984 47.9775H47.0136V52.9929H6.33984V47.9775Z" fill="url(#paint4_linear_3553_9034)"/>
<path d="M10.7694 18.9629L6.33984 23.1814V52.9925H10.7694V18.9629Z" fill="url(#paint5_linear_3553_9034)"/>
<path d="M6.43371 27.154L12.3044 33.0248H47.0254V23.1815L26.6827 3.33093L6.33984 23.1815L6.43371 27.154Z" fill="url(#paint6_linear_3553_9034)"/>
<path d="M25.8387 0.342757L2.95309 21.9159C2.5078 22.3378 2.25 22.9237 2.25 23.5447V28.2555C2.25 29.3335 3.539 29.8843 4.32412 29.146L26.448 8.28768C26.5769 8.15878 26.7879 8.15878 26.9285 8.28768L49.0524 29.146C49.8375 29.8843 51.1265 29.3335 51.1265 28.2555V23.5447C51.1265 22.9237 50.8687 22.3378 50.4234 21.9159L27.5261 0.342757C27.0458 -0.114252 26.3074 -0.114252 25.8387 0.342757Z" fill="url(#paint7_linear_3553_9034)"/>
<path d="M50.4 26.3102L27.5261 4.73704C27.0574 4.29175 26.3191 4.29175 25.8387 4.73704L2.95309 26.3102C2.5078 26.7321 2.25 27.318 2.25 27.939V28.2554C2.25 29.3335 3.539 29.8843 4.32412 29.146L26.448 8.28765C26.5769 8.15875 26.7879 8.15875 26.9285 8.28765L49.0524 29.146C49.8375 29.8843 51.1265 29.3335 51.1265 28.2554V27.939C51.1148 27.3297 50.8569 26.7321 50.4 26.3102Z" fill="url(#paint8_linear_3553_9034)"/>
<path d="M48.0561 49.7231C47.4467 49.7817 46.896 49.9692 46.2515 49.6294C45.7007 49.3481 45.2789 48.856 44.9508 48.3169C44.4352 47.4732 44.1539 46.3951 44.5406 45.4928C44.7515 45.0007 45.1382 44.5788 45.2554 44.0632C45.3609 43.5828 45.2203 43.0789 45.1148 42.5985C44.939 41.6727 44.9625 40.6415 45.4898 39.8564C45.7007 39.5517 45.982 39.2939 46.1694 38.9658C46.521 38.3799 46.5444 37.6534 46.5327 36.962C46.521 36.2706 46.4858 35.5676 46.7554 34.9348C47.3413 33.552 49.3919 33.5637 49.9661 34.9348C50.2357 35.5676 50.2005 36.2824 50.1888 36.962C50.1771 37.6534 50.2005 38.3682 50.552 38.9658C50.7395 39.2822 51.0208 39.54 51.2317 39.8564C51.759 40.6415 51.7825 41.661 51.6067 42.5985C51.5129 43.0789 51.3606 43.5828 51.4661 44.0632C51.5832 44.5905 51.9699 45.0007 52.1809 45.4928C52.8254 47.0279 51.7004 49.3598 50.0599 49.77C49.3918 49.9458 48.7356 49.6528 48.0561 49.7231Z" fill="url(#paint9_linear_3553_9034)"/>
<path d="M49.9429 46.4303C49.8023 46.7115 49.4976 47.2975 49.0172 47.9888C48.982 48.0357 48.9235 48.0123 48.9117 47.9654C48.8649 46.196 48.7242 44.1335 48.4547 41.7899C48.443 41.7196 48.3493 41.7196 48.3493 41.7899C48.3141 42.6336 48.2555 44.0984 48.1032 45.8327C48.1032 45.8796 48.0329 45.903 48.0094 45.8678C47.611 45.3991 47.2243 44.7663 46.9782 44.3679C46.9314 44.2859 46.7907 44.3328 46.8142 44.4265C47.072 46.0202 47.5993 46.7467 47.9743 47.0865C47.986 47.0982 47.9977 47.11 47.9977 47.1334C47.6579 50.3559 47.0485 54.1174 45.9236 56.4259C45.9002 56.4611 45.9353 56.5079 45.9705 56.5079H48.3375C48.361 56.5079 48.3844 56.4962 48.3961 56.4611C48.4782 56.1212 49.0055 53.7073 48.9469 49.0669C48.9469 49.0552 48.9469 49.0317 48.9586 49.0317C49.4156 48.5982 50.1656 47.6959 50.0601 46.4537C50.0366 46.3952 49.9663 46.3717 49.9429 46.4303Z" fill="url(#paint10_linear_3553_9034)"/>
<path d="M6.33984 40.4541V52.9926H18.89C15.5855 49.6763 7.35944 41.4501 6.33984 40.4541Z" fill="url(#paint11_linear_3553_9034)"/>
<path d="M4.95657 51.5038C4.51128 51.5507 4.10114 51.6913 3.6207 51.4335C3.21056 51.2226 2.89417 50.8593 2.6598 50.4726C2.28482 49.8516 2.0739 49.0547 2.35513 48.3868C2.50747 48.0235 2.80042 47.7189 2.88245 47.3322C2.96448 46.9806 2.8473 46.6056 2.77699 46.2541C2.64809 45.5744 2.6598 44.8128 3.05822 44.2386C3.21056 44.0159 3.42149 43.8167 3.5621 43.5823C3.8199 43.1488 3.84334 42.6097 3.83162 42.1059C3.8199 41.602 3.79647 41.0747 3.99568 40.6059C4.42925 39.5864 5.94089 39.5982 6.36275 40.6059C6.56196 41.0747 6.53852 41.602 6.5268 42.1059C6.51509 42.6097 6.53852 43.1488 6.79632 43.5823C6.93694 43.8167 7.14787 44.0042 7.3002 44.2386C7.6869 44.8128 7.71034 45.5744 7.58144 46.2541C7.51113 46.6174 7.40567 46.9806 7.47598 47.3322C7.558 47.7189 7.85096 48.0235 8.00329 48.3868C8.48374 49.5117 7.65175 51.2343 6.44478 51.5507C5.94089 51.6679 5.46033 51.4452 4.95657 51.5038Z" fill="url(#paint12_linear_3553_9034)"/>
<path d="M6.35063 49.0665C6.24516 49.2657 6.02252 49.6993 5.65925 50.2149C5.63582 50.25 5.58895 50.2383 5.58895 50.1914C5.55379 48.879 5.44833 47.3673 5.24912 45.6331C5.24912 45.5862 5.16709 45.5862 5.16709 45.6331C5.14366 46.2541 5.09678 47.3322 4.9796 48.6095C4.9796 48.6446 4.93273 48.6563 4.90929 48.6329C4.61634 48.2814 4.32338 47.8244 4.14761 47.5314C4.11246 47.4728 4.00699 47.508 4.01871 47.5783C4.2062 48.7501 4.60462 49.2891 4.87414 49.5352C4.88586 49.5469 4.88586 49.5586 4.88586 49.5704C4.63977 51.9492 4.18276 54.7264 3.36249 56.4255C3.35077 56.4489 3.37421 56.4841 3.39765 56.4841H5.15537C5.17881 56.4841 5.19053 56.4724 5.19053 56.4489C5.24912 56.1911 5.63582 54.4217 5.60066 51C5.60066 50.9883 5.60066 50.9765 5.61238 50.9648C5.95221 50.6484 6.50296 49.9805 6.42094 49.0665C6.42094 49.043 6.36235 49.0313 6.35063 49.0665Z" fill="url(#paint13_linear_3553_9034)"/>
<path d="M35.6581 26.0876C33.42 23.6854 30.2326 22.1737 26.682 22.1737C19.9089 22.1737 14.4248 27.6578 14.4248 34.4309C14.4248 37.9815 15.9364 41.1689 18.3387 43.407C18.4324 43.5008 22.897 47.9771 27.9241 53.0042H47.0131V37.4308C42.525 32.931 35.8106 26.2165 35.6581 26.0876Z" fill="url(#paint14_linear_3553_9034)"/>
<path d="M26.682 46.6764C33.4515 46.6764 38.9392 41.1887 38.9392 34.4192C38.9392 27.6497 33.4515 22.162 26.682 22.162C19.9125 22.162 14.4248 27.6497 14.4248 34.4192C14.4248 41.1887 19.9125 46.6764 26.682 46.6764Z" fill="url(#paint15_linear_3553_9034)"/>
<path d="M26.682 46.6764C33.4515 46.6764 38.9392 41.1887 38.9392 34.4192C38.9392 27.6497 33.4515 22.162 26.682 22.162C19.9125 22.162 14.4248 27.6497 14.4248 34.4192C14.4248 41.1887 19.9125 46.6764 26.682 46.6764Z" fill="url(#paint16_radial_3553_9034)"/>
<path d="M26.682 46.6764C33.4515 46.6764 38.9392 41.1887 38.9392 34.4192C38.9392 27.6497 33.4515 22.162 26.682 22.162C19.9125 22.162 14.4248 27.6497 14.4248 34.4192C14.4248 41.1887 19.9125 46.6764 26.682 46.6764Z" fill="url(#paint17_radial_3553_9034)"/>
<path d="M21.3857 40.5833C21.1631 40.5833 20.9404 40.5012 20.7764 40.3372C20.4365 39.9974 20.4365 39.4583 20.7764 39.1185L31.3696 28.5253C31.7094 28.1854 32.2484 28.1854 32.5883 28.5253C32.9281 28.8651 32.9281 29.4041 32.5883 29.7439L21.995 40.3372C21.8193 40.5012 21.6083 40.5833 21.3857 40.5833ZM25.5339 30.7751C25.5339 29.3924 24.409 28.2675 23.0262 28.2675C21.6435 28.2675 20.5186 29.3924 20.5186 30.7751C20.5186 32.1579 21.6435 33.2828 23.0262 33.2828C24.409 33.2828 25.5339 32.1579 25.5339 30.7751ZM23.8232 30.7751C23.8232 31.2087 23.4717 31.5603 23.0381 31.5603C22.6045 31.5603 22.253 31.2087 22.253 30.7751C22.253 30.3416 22.6045 29.99 23.0381 29.99C23.4717 29.99 23.8232 30.3416 23.8232 30.7751ZM32.8345 38.0756C32.8345 36.6928 31.7095 35.5679 30.3268 35.5679C28.944 35.5679 27.8191 36.6928 27.8191 38.0756C27.8191 39.4583 28.944 40.5833 30.3268 40.5833C31.7095 40.5833 32.8345 39.4583 32.8345 38.0756ZM31.1236 38.0756C31.1236 38.5091 30.7721 38.8607 30.3385 38.8607C29.9049 38.8607 29.5534 38.5091 29.5534 38.0756C29.5534 37.642 29.9049 37.2905 30.3385 37.2905C30.7721 37.2905 31.1236 37.642 31.1236 38.0756Z" fill="url(#paint18_linear_3553_9034)"/>
<path d="M30.3384 39.9505C29.2955 39.9505 28.4518 39.1068 28.4518 38.0639C28.4518 37.021 29.2955 36.1773 30.3384 36.1773C31.3813 36.1773 32.225 37.021 32.225 38.0639C32.2133 39.1068 31.3697 39.9505 30.3384 39.9505ZM30.3384 36.6577C29.565 36.6577 28.9205 37.2905 28.9205 38.0756C28.9205 38.849 29.5533 39.4935 30.3384 39.4935C31.1118 39.4935 31.7563 38.8607 31.7563 38.0756C31.7446 37.2905 31.1118 36.6577 30.3384 36.6577ZM21.3857 39.9505C21.3506 39.9505 21.2803 39.9388 21.2217 39.8802C21.1279 39.7865 21.1279 39.6458 21.2217 39.5521L31.8149 28.9589C31.8735 28.9003 31.9438 28.8885 31.979 28.8885C32.0141 28.8885 32.0844 28.9003 32.143 28.9589C32.2368 29.0526 32.2368 29.1932 32.143 29.287L21.5498 39.8802C21.4912 39.9505 21.421 39.9505 21.3857 39.9505ZM23.0263 32.6501C21.9834 32.6501 21.1396 31.8064 21.1396 30.7635C21.1396 29.7205 21.9834 28.8768 23.0263 28.8768C24.0692 28.8768 24.9129 29.7205 24.9129 30.7635C24.913 31.8064 24.0692 32.6501 23.0263 32.6501ZM23.0263 29.3573C22.2529 29.3573 21.6084 29.9901 21.6084 30.7752C21.6084 31.5486 22.2412 32.1931 23.0263 32.1931C23.7997 32.1931 24.4442 31.5603 24.4442 30.7752C24.4442 29.9901 23.8114 29.3573 23.0263 29.3573Z" fill="url(#paint19_linear_3553_9034)"/>
<defs>
<linearGradient id="paint0_linear_3553_9034" x1="26.6824" y1="56.1028" x2="26.6824" y2="60.2596" gradientUnits="userSpaceOnUse">
<stop stop-color="#7B7DA1"/>
<stop offset="0.3104" stop-color="#6D6F93"/>
<stop offset="0.8987" stop-color="#494C6D"/>
<stop offset="1" stop-color="#424566"/>
</linearGradient>
<linearGradient id="paint1_linear_3553_9034" x1="26.6825" y1="52.6016" x2="26.6825" y2="56.7583" gradientUnits="userSpaceOnUse">
<stop stop-color="#7B7DA1"/>
<stop offset="0.3104" stop-color="#6D6F93"/>
<stop offset="0.8987" stop-color="#494C6D"/>
<stop offset="1" stop-color="#424566"/>
</linearGradient>
<linearGradient id="paint2_linear_3553_9034" x1="7.17266" y1="18.5769" x2="43.5981" y2="55.0025" gradientUnits="userSpaceOnUse">
<stop stop-color="white"/>
<stop offset="0.9959" stop-color="#C4CBFF"/>
</linearGradient>
<linearGradient id="paint3_linear_3553_9034" x1="47.8636" y1="35.9777" x2="43.6186" y2="35.9777" gradientUnits="userSpaceOnUse">
<stop offset="2.26926e-06" stop-color="#9CAEFF"/>
<stop offset="0.573" stop-color="#B6C1FF" stop-opacity="0.427"/>
<stop offset="1" stop-color="#C4CBFF" stop-opacity="0"/>
</linearGradient>
<linearGradient id="paint4_linear_3553_9034" x1="26.6769" y1="53.3004" x2="26.6769" y2="50.2898" gradientUnits="userSpaceOnUse">
<stop offset="2.26926e-06" stop-color="#9CAEFF"/>
<stop offset="0.573" stop-color="#B6C1FF" stop-opacity="0.427"/>
<stop offset="1" stop-color="#C4CBFF" stop-opacity="0"/>
</linearGradient>
<linearGradient id="paint5_linear_3553_9034" x1="5.60629" y1="35.9777" x2="9.85131" y2="35.9777" gradientUnits="userSpaceOnUse">
<stop offset="1.86333e-06" stop-color="white"/>
<stop offset="1" stop-color="#E9EDFF" stop-opacity="0"/>
</linearGradient>
<linearGradient id="paint6_linear_3553_9034" x1="16.6494" y1="15.0877" x2="22.3961" y2="20.8343" gradientUnits="userSpaceOnUse">
<stop offset="2.26926e-06" stop-color="#9CAEFF"/>
<stop offset="0.573" stop-color="#B6C1FF" stop-opacity="0.427"/>
<stop offset="1" stop-color="#C4CBFF" stop-opacity="0"/>
</linearGradient>
<linearGradient id="paint7_linear_3553_9034" x1="26.6884" y1="-0.82578" x2="26.6884" y2="28.774" gradientUnits="userSpaceOnUse">
<stop stop-color="#FFB18C"/>
<stop offset="0.3254" stop-color="#FF8462"/>
<stop offset="1" stop-color="#FF1E00"/>
</linearGradient>
<linearGradient id="paint8_linear_3553_9034" x1="26.6883" y1="4.20363" x2="26.6883" y2="42.3415" gradientUnits="userSpaceOnUse">
<stop offset="3.9125e-07" stop-color="#FF1E00"/>
<stop offset="0.4163" stop-color="#FF2002"/>
<stop offset="0.5662" stop-color="#FF2708"/>
<stop offset="0.673" stop-color="#FF3214"/>
<stop offset="0.7595" stop-color="#FF4324"/>
<stop offset="0.8335" stop-color="#FF5939"/>
<stop offset="0.8991" stop-color="#FF7552"/>
<stop offset="0.9569" stop-color="#FF9470"/>
<stop offset="1" stop-color="#FFB18C"/>
</linearGradient>
<linearGradient id="paint9_linear_3553_9034" x1="44.523" y1="34.9515" x2="50.6857" y2="49.0743" gradientUnits="userSpaceOnUse">
<stop stop-color="#CFE958"/>
<stop offset="0.5848" stop-color="#80B35D"/>
<stop offset="1" stop-color="#4C9060"/>
</linearGradient>
<linearGradient id="paint10_linear_3553_9034" x1="45.7487" y1="42.735" x2="49.3877" y2="56.9059" gradientUnits="userSpaceOnUse">
<stop stop-color="#EFA33D"/>
<stop offset="1" stop-color="#A05223"/>
</linearGradient>
<linearGradient id="paint11_linear_3553_9034" x1="1.1501" y1="41.5239" x2="9.29013" y2="49.6639" gradientUnits="userSpaceOnUse">
<stop offset="2.26926e-06" stop-color="#9CAEFF"/>
<stop offset="0.573" stop-color="#B6C1FF" stop-opacity="0.427"/>
<stop offset="1" stop-color="#C4CBFF" stop-opacity="0"/>
</linearGradient>
<linearGradient id="paint12_linear_3553_9034" x1="2.34412" y1="40.6096" x2="6.89089" y2="51.0291" gradientUnits="userSpaceOnUse">
<stop stop-color="#CFE958"/>
<stop offset="0.5848" stop-color="#80B35D"/>
<stop offset="1" stop-color="#4C9060"/>
</linearGradient>
<linearGradient id="paint13_linear_3553_9034" x1="3.24531" y1="46.3494" x2="5.92936" y2="56.8013" gradientUnits="userSpaceOnUse">
<stop stop-color="#EFA33D"/>
<stop offset="1" stop-color="#A05223"/>
</linearGradient>
<linearGradient id="paint14_linear_3553_9034" x1="30.2904" y1="38.0354" x2="37.9324" y2="45.6773" gradientUnits="userSpaceOnUse">
<stop offset="2.26926e-06" stop-color="#9CAEFF"/>
<stop offset="0.573" stop-color="#B6C1FF" stop-opacity="0.427"/>
<stop offset="1" stop-color="#C4CBFF" stop-opacity="0"/>
</linearGradient>
<linearGradient id="paint15_linear_3553_9034" x1="17.6675" y1="25.4046" x2="36.1768" y2="43.914" gradientUnits="userSpaceOnUse">
<stop stop-color="#FF7F5C"/>
<stop offset="0.1532" stop-color="#FF7957"/>
<stop offset="0.3599" stop-color="#FF6849"/>
<stop offset="0.5972" stop-color="#FF4B33"/>
<stop offset="0.8552" stop-color="#FF2414"/>
<stop offset="0.9959" stop-color="#FF0C00"/>
</linearGradient>
<radialGradient id="paint16_radial_3553_9034" cx="0" cy="0" r="1" gradientUnits="userSpaceOnUse" gradientTransform="translate(27.3409 35.0346) scale(13.2599)">
<stop offset="0.8186" stop-color="#FFB7A3" stop-opacity="0"/>
<stop offset="1" stop-color="#FFB7A3"/>
</radialGradient>
<radialGradient id="paint17_radial_3553_9034" cx="0" cy="0" r="1" gradientUnits="userSpaceOnUse" gradientTransform="translate(26.0842 33.778) scale(13.2599)">
<stop offset="0.8186" stop-color="#E00A00" stop-opacity="0"/>
<stop offset="1" stop-color="#E00A00"/>
</radialGradient>
<linearGradient id="paint18_linear_3553_9034" x1="21.3374" y1="29.0863" x2="31.8452" y2="39.5941" gradientUnits="userSpaceOnUse">
<stop stop-color="#FFED81"/>
<stop offset="0.2348" stop-color="#FFD968"/>
<stop offset="0.7302" stop-color="#FFA629"/>
<stop offset="1" stop-color="#FF8804"/>
</linearGradient>
<linearGradient id="paint19_linear_3553_9034" x1="21.9749" y1="29.712" x2="31.3914" y2="39.1285" gradientUnits="userSpaceOnUse">
<stop stop-color="#FFF7C7"/>
<stop offset="0.2348" stop-color="#FFE8AE"/>
<stop offset="0.7302" stop-color="#FFC06F"/>
<stop offset="1" stop-color="#FFA94A"/>
</linearGradient>
</defs>
</svg>
